<svg xmlns="http://www.w3.org/2000/svg" viewBox="5 -50 130 45">
    <path d="M36.00-19.94L7.20-19.94L7.20-25.13L36.00-25.13L36.00-19.94ZM67.39-38.74Q81.14-38.74 81.14-19.01L81.14-19.01Q81.14-10.01 77.40-4.61Q73.66 0.79 66.53 0.79L66.53 0.79Q60.34 0.79 56.45-3.53L56.45-3.53L56.45 14.54L50.40 15.26L50.40-37.94L55.58-37.94L56.09-32.62Q58.18-35.57 61.09-37.15Q64.01-38.74 67.39-38.74L67.39-38.74ZM65.95-33.84Q63.07-33.84 60.66-32.11Q58.25-30.38 56.45-27.79L56.45-27.79L56.45-9.00Q57.96-6.77 60.23-5.51Q62.50-4.25 65.16-4.25L65.16-4.25Q69.91-4.25 72.25-7.88Q74.59-11.52 74.59-19.01L74.59-19.01Q74.59-26.50 72.50-30.17Q70.42-33.84 65.95-33.84L65.95-33.84ZM107.86-16.27L97.42 0L90.50 0L104.47-20.02L92.16-37.94L99.36-37.94L108.14-23.83L117.00-37.94L123.98-37.94L111.67-20.30L125.64 0L118.30 0L107.86-16.27Z"/>
</svg>