<svg version="1.0" xmlns="http://www.w3.org/2000/svg" viewBox="65 65 570 570">
    <g transform="translate(0,700) scale(0.100000,-0.100000)">
        <path d="M3110 6347 c-35 -9 -70 -58 -70 -98 0 -15 -3 -41 -6 -58 -6 -30 -7
-31 -65 -31 -70 0 -95 -18 -104 -77 -3 -21 -10 -45 -14 -53 -19 -36 -62 -39
-633 -37 -639 2 -586 10 -603 -96 l-10 -62 -52 -6 c-85 -11 -103 -18 -113 -45
-6 -14 -10 -124 -10 -244 0 -217 0 -220 23 -234 12 -8 38 -17 57 -21 54 -10
88 -25 97 -43 4 -10 10 -996 13 -2192 4 -1741 8 -2179 18 -2197 13 -23 24 -27
96 -37 21 -3 40 -7 42 -8 1 -2 8 -35 14 -73 6 -38 16 -75 22 -82 8 -11 325
-13 1655 -13 1829 0 1692 -5 1712 68 6 20 11 45 11 55 0 30 35 54 89 61 89 12
81 -219 82 2208 0 1186 4 2173 9 2193 10 44 23 55 68 55 45 0 89 25 94 52 2
13 3 115 3 228 -1 244 -5 260 -70 260 -24 0 -57 3 -74 6 l-32 7 3 63 c2 48 -2
68 -14 80 -14 14 -81 16 -601 17 -667 2 -619 -4 -630 89 -4 28 -11 56 -16 61
-5 5 -34 12 -63 15 -29 2 -59 9 -65 14 -7 6 -22 41 -33 78 -32 109 -2 102
-429 103 -204 1 -385 -2 -401 -6z m779 -187 c42 -12 51 -24 51 -72 0 -25 -8
-46 -24 -65 l-24 -28 -407 0 -407 0 -19 24 c-14 17 -19 39 -19 82 l0 58 48 3
c116 9 770 7 801 -2z m1462 -347 c12 -12 17 -277 7 -315 -5 -17 -19 -30 -39
-37 -23 -8 -550 -11 -1840 -11 -2049 1 -1841 -9 -1859 88 -12 64 -2 258 14
271 6 5 32 11 56 13 119 8 3653 -1 3661 -9z m-197 -546 c13 -9 26 -30 30 -48
12 -61 7 -4276 -5 -4325 -7 -26 -21 -51 -33 -59 -19 -13 -266 -15 -1679 -15
-912 0 -1662 2 -1667 5 -15 10 -13 4387 2 4420 6 14 23 28 37 31 14 3 29 6 34
7 4 1 738 1 1632 1 1442 -2 1628 -4 1649 -17z"></path>
        <path d="M2569 4911 c-62 -19 -68 -27 -71 -94 l-3 -62 -70 -10 c-38 -5 -76
-14 -83 -18 -10 -7 -12 -341 -12 -1663 l1 -1655 23 -24 c14 -14 42 -26 70 -30
55 -9 76 -26 76 -63 0 -15 3 -44 6 -64 6 -34 11 -39 46 -49 52 -13 93 -4 118
28 49 63 6 137 -89 152 -29 4 -58 14 -64 20 -9 9 -13 397 -15 1637 -1 894 1
1647 6 1672 7 45 9 47 42 50 102 7 140 30 140 85 0 39 -15 64 -50 82 -32 17
-34 17 -71 6z"></path>
        <path d="M3270 4909 c-36 -14 -60 -49 -60 -90 0 -52 -17 -68 -77 -76 -85 -10
-87 -13 -93 -155 -3 -68 -3 -813 0 -1655 5 -1530 5 -1532 26 -1553 12 -12 42
-24 72 -29 29 -4 55 -11 58 -14 4 -3 10 -28 15 -54 17 -92 76 -131 152 -100
36 15 37 18 37 65 0 37 -5 53 -22 70 -27 24 -70 42 -102 42 -12 0 -30 6 -40
13 -16 12 -17 101 -18 1677 0 1526 2 1665 17 1676 8 6 41 15 72 19 31 4 66 11
78 15 22 8 23 16 16 102 -3 36 -85 65 -131 47z"></path>
        <path d="M3995 4911 c-33 -14 -48 -39 -60 -99 -13 -63 -21 -68 -116 -71 -28
-1 -52 -7 -59 -16 -9 -11 -12 -67 -11 -210 1 -126 -2 -195 -9 -195 -5 0 -10
-7 -10 -15 0 -8 5 -15 10 -15 7 0 10 -472 10 -1424 0 -902 3 -1433 9 -1449 14
-35 49 -56 111 -66 59 -9 70 -20 70 -74 0 -50 23 -93 54 -101 22 -5 101 6 111
16 2 2 7 27 11 55 6 46 4 54 -19 76 -16 17 -40 27 -73 32 -27 3 -56 10 -64 14
-13 7 -15 205 -15 1687 l0 1679 74 7 c41 5 79 12 83 16 5 5 12 34 15 65 5 50
3 56 -18 70 -32 20 -79 28 -104 18z"></path>
        <path d="M4693 4908 c-27 -13 -34 -28 -42 -98 l-6 -55 -62 -7 c-35 -4 -75 -13
-90 -20 l-28 -13 -3 -1636 c-2 -1054 1 -1645 7 -1662 14 -37 51 -57 115 -64
61 -6 59 -2 71 -93 10 -75 26 -91 91 -88 65 3 74 15 74 97 0 61 -20 80 -95 90
-31 4 -61 14 -66 22 -12 19 -10 3318 2 3342 7 12 22 17 57 17 88 0 123 41 103
118 -15 55 -71 77 -128 50z"></path>
    </g>
</svg>