<svg class="spinner" width="100%" height="100%" xmlns="http://www.w3.org/2000/svg" xmlns:xlink="http://www.w3.org/1999/xlink" viewBox="0 0 100 100" preserveAspectRatio="xMidYMid"><g transform="rotate(0 50 50)">
    <rect x="47" y="2" rx="0" ry="0" width="6" height="24" >
    </rect>
</g><g transform="rotate(30 50 50)">
    <rect x="47" y="2" rx="0" ry="0" width="6" height="24" >
    </rect>
</g><g transform="rotate(60 50 50)">
    <rect x="47" y="2" rx="0" ry="0" width="6" height="24" >
    </rect>
</g><g transform="rotate(90 50 50)">
    <rect x="47" y="2" rx="0" ry="0" width="6" height="24" >
    </rect>
</g><g transform="rotate(120 50 50)">
    <rect x="47" y="2" rx="0" ry="0" width="6" height="24" >
    </rect>
</g><g transform="rotate(150 50 50)">
    <rect x="47" y="2" rx="0" ry="0" width="6" height="24" >
    </rect>
</g><g transform="rotate(180 50 50)">
    <rect x="47" y="2" rx="0" ry="0" width="6" height="24" >
    </rect>
</g><g transform="rotate(210 50 50)">
    <rect x="47" y="2" rx="0" ry="0" width="6" height="24" >
    </rect>
</g><g transform="rotate(240 50 50)">
    <rect x="47" y="2" rx="0" ry="0" width="6" height="24" >
    </rect>
</g><g transform="rotate(270 50 50)">
    <rect x="47" y="2" rx="0" ry="0" width="6" height="24" >
    </rect>
</g><g transform="rotate(300 50 50)">
    <rect x="47" y="2" rx="0" ry="0" width="6" height="24" >
    </rect>
</g><g transform="rotate(330 50 50)">
    <rect x="47" y="2" rx="0" ry="0" width="6" height="24" >
    </rect>
</g></svg>
